<?xml version="1.0" encoding="utf-8"?>
<!-- Generator: Adobe Illustrator 24.1.0, SVG Export Plug-In . SVG Version: 6.00 Build 0)  -->
<svg version="1.1" id="Capa_1" xmlns="http://www.w3.org/2000/svg" xmlns:xlink="http://www.w3.org/1999/xlink" x="0px" y="0px"
	 viewBox="0 0 409 409" style="enable-background:new 0 0 409 409;" xml:space="preserve">
<style type="text/css">
	.st0{fill:#FFFFFF;}
</style>
<g>
	<rect x="24.85" y="29.37" width="365.55" height="357.15"/>
	<path class="st0" d="M204.56,163.74c-22.41,0-40.66,18.24-40.66,40.65c0,22.42,18.25,40.67,40.66,40.67
		c22.42,0,40.66-18.25,40.66-40.67C245.22,181.98,226.98,163.74,204.56,163.74z M204.56,163.74c-22.41,0-40.66,18.24-40.66,40.65
		c0,22.42,18.25,40.67,40.66,40.67c22.42,0,40.66-18.25,40.66-40.67C245.22,181.98,226.98,163.74,204.56,163.74z M272.29,97.45
		H136.83c-21.62,0-39.22,17.59-39.22,39.22v135.47c0,21.62,17.59,39.22,39.22,39.22h135.47c21.62,0,39.22-17.59,39.22-39.22V136.66
		C311.51,115.04,293.92,97.45,272.29,97.45z M204.56,274.81c-38.82,0-70.41-31.59-70.41-70.42c0-38.82,31.59-70.41,70.41-70.41
		c38.83,0,70.42,31.59,70.42,70.41C274.98,243.22,243.39,274.81,204.56,274.81z M277.24,148.54c-9.19,0-16.66-7.47-16.66-16.66
		s7.47-16.66,16.66-16.66c9.19,0,16.66,7.47,16.66,16.66S286.43,148.54,277.24,148.54z M204.56,163.74
		c-22.41,0-40.66,18.24-40.66,40.65c0,22.42,18.25,40.67,40.66,40.67c22.42,0,40.66-18.25,40.66-40.67
		C245.22,181.98,226.98,163.74,204.56,163.74z M272.29,97.45H136.83c-21.62,0-39.22,17.59-39.22,39.22v135.47
		c0,21.62,17.59,39.22,39.22,39.22h135.47c21.62,0,39.22-17.59,39.22-39.22V136.66C311.51,115.04,293.92,97.45,272.29,97.45z
		 M204.56,274.81c-38.82,0-70.41-31.59-70.41-70.42c0-38.82,31.59-70.41,70.41-70.41c38.83,0,70.42,31.59,70.42,70.41
		C274.98,243.22,243.39,274.81,204.56,274.81z M277.24,148.54c-9.19,0-16.66-7.47-16.66-16.66s7.47-16.66,16.66-16.66
		c9.19,0,16.66,7.47,16.66,16.66S286.43,148.54,277.24,148.54z M204.56,163.74c-22.41,0-40.66,18.24-40.66,40.65
		c0,22.42,18.25,40.67,40.66,40.67c22.42,0,40.66-18.25,40.66-40.67C245.22,181.98,226.98,163.74,204.56,163.74z M0.12-0.04v408.88
		H409V-0.04H0.12z M341.26,272.13c0,38.03-30.94,68.97-68.97,68.97H136.83c-38.03,0-68.97-30.94-68.97-68.97V136.66
		c0-38.03,30.94-68.97,68.97-68.97h135.47c38.03,0,68.97,30.94,68.97,68.97L341.26,272.13L341.26,272.13z M272.29,97.45H136.83
		c-21.62,0-39.22,17.59-39.22,39.22v135.47c0,21.62,17.59,39.22,39.22,39.22h135.47c21.62,0,39.22-17.59,39.22-39.22V136.66
		C311.51,115.04,293.92,97.45,272.29,97.45z M204.56,274.81c-38.82,0-70.41-31.59-70.41-70.42c0-38.82,31.59-70.41,70.41-70.41
		c38.83,0,70.42,31.59,70.42,70.41C274.98,243.22,243.39,274.81,204.56,274.81z M277.24,148.54c-9.19,0-16.66-7.47-16.66-16.66
		s7.47-16.66,16.66-16.66c9.19,0,16.66,7.47,16.66,16.66S286.43,148.54,277.24,148.54z M204.56,163.74
		c-22.41,0-40.66,18.24-40.66,40.65c0,22.42,18.25,40.67,40.66,40.67c22.42,0,40.66-18.25,40.66-40.67
		C245.22,181.98,226.98,163.74,204.56,163.74z M204.56,163.74c-22.41,0-40.66,18.24-40.66,40.65c0,22.42,18.25,40.67,40.66,40.67
		c22.42,0,40.66-18.25,40.66-40.67C245.22,181.98,226.98,163.74,204.56,163.74z M204.56,163.74c-22.41,0-40.66,18.24-40.66,40.65
		c0,22.42,18.25,40.67,40.66,40.67c22.42,0,40.66-18.25,40.66-40.67C245.22,181.98,226.98,163.74,204.56,163.74z M272.29,97.45
		H136.83c-21.62,0-39.22,17.59-39.22,39.22v135.47c0,21.62,17.59,39.22,39.22,39.22h135.47c21.62,0,39.22-17.59,39.22-39.22V136.66
		C311.51,115.04,293.92,97.45,272.29,97.45z M204.56,274.81c-38.82,0-70.41-31.59-70.41-70.42c0-38.82,31.59-70.41,70.41-70.41
		c38.83,0,70.42,31.59,70.42,70.41C274.98,243.22,243.39,274.81,204.56,274.81z M277.24,148.54c-9.19,0-16.66-7.47-16.66-16.66
		s7.47-16.66,16.66-16.66c9.19,0,16.66,7.47,16.66,16.66S286.43,148.54,277.24,148.54z M204.56,163.74
		c-22.41,0-40.66,18.24-40.66,40.65c0,22.42,18.25,40.67,40.66,40.67c22.42,0,40.66-18.25,40.66-40.67
		C245.22,181.98,226.98,163.74,204.56,163.74z M204.56,163.74c-22.41,0-40.66,18.24-40.66,40.65c0,22.42,18.25,40.67,40.66,40.67
		c22.42,0,40.66-18.25,40.66-40.67C245.22,181.98,226.98,163.74,204.56,163.74z M204.56,163.74c-22.41,0-40.66,18.24-40.66,40.65
		c0,22.42,18.25,40.67,40.66,40.67c22.42,0,40.66-18.25,40.66-40.67C245.22,181.98,226.98,163.74,204.56,163.74z M272.29,97.45
		H136.83c-21.62,0-39.22,17.59-39.22,39.22v135.47c0,21.62,17.59,39.22,39.22,39.22h135.47c21.62,0,39.22-17.59,39.22-39.22V136.66
		C311.51,115.04,293.92,97.45,272.29,97.45z M204.56,274.81c-38.82,0-70.41-31.59-70.41-70.42c0-38.82,31.59-70.41,70.41-70.41
		c38.83,0,70.42,31.59,70.42,70.41C274.98,243.22,243.39,274.81,204.56,274.81z M277.24,148.54c-9.19,0-16.66-7.47-16.66-16.66
		s7.47-16.66,16.66-16.66c9.19,0,16.66,7.47,16.66,16.66S286.43,148.54,277.24,148.54z M204.56,163.74
		c-22.41,0-40.66,18.24-40.66,40.65c0,22.42,18.25,40.67,40.66,40.67c22.42,0,40.66-18.25,40.66-40.67
		C245.22,181.98,226.98,163.74,204.56,163.74z"/>
</g>
</svg>
