<?xml version="1.0" encoding="utf-8"?>
<!-- Generator: Adobe Illustrator 24.1.0, SVG Export Plug-In . SVG Version: 6.00 Build 0)  -->
<svg version="1.1" xmlns="http://www.w3.org/2000/svg" xmlns:xlink="http://www.w3.org/1999/xlink" x="0px" y="0px"
	 viewBox="0 0 323 323" style="enable-background:new 0 0 323 323;" xml:space="preserve">
<style type="text/css">
	.st0{fill:#FFFFFF;}
</style>
<g id="Capa_3">
	<rect width="323" height="323"/>
</g>
<g id="Capa_1">
</g>
<g id="Capa_2">
	<g>
		<rect x="49.61" y="52.53" class="st0" width="227.59" height="222.36"/>
		<path d="M161.5,136.19c-13.95,0-25.32,11.36-25.32,25.31c0,13.96,11.36,25.32,25.32,25.32c13.96,0,25.32-11.36,25.32-25.32
			C186.81,147.54,175.46,136.19,161.5,136.19z M161.5,136.19c-13.95,0-25.32,11.36-25.32,25.31c0,13.96,11.36,25.32,25.32,25.32
			c13.96,0,25.32-11.36,25.32-25.32C186.81,147.54,175.46,136.19,161.5,136.19z M203.67,94.91h-84.34
			c-13.46,0-24.42,10.95-24.42,24.42v84.34c0,13.46,10.95,24.42,24.42,24.42h84.34c13.46,0,24.42-10.95,24.42-24.42v-84.34
			C228.09,105.87,217.13,94.91,203.67,94.91z M161.5,205.34c-24.17,0-43.84-19.67-43.84-43.84c0-24.17,19.67-43.84,43.84-43.84
			c24.18,0,43.84,19.67,43.84,43.84C205.34,185.67,185.67,205.34,161.5,205.34z M206.75,126.72c-5.72,0-10.37-4.65-10.37-10.37
			s4.65-10.37,10.37-10.37c5.72,0,10.37,4.65,10.37,10.37S212.47,126.72,206.75,126.72z M161.5,136.19
			c-13.95,0-25.32,11.36-25.32,25.31c0,13.96,11.36,25.32,25.32,25.32c13.96,0,25.32-11.36,25.32-25.32
			C186.81,147.54,175.46,136.19,161.5,136.19z M203.67,94.91h-84.34c-13.46,0-24.42,10.95-24.42,24.42v84.34
			c0,13.46,10.95,24.42,24.42,24.42h84.34c13.46,0,24.42-10.95,24.42-24.42v-84.34C228.09,105.87,217.13,94.91,203.67,94.91z
			 M161.5,205.34c-24.17,0-43.84-19.67-43.84-43.84c0-24.17,19.67-43.84,43.84-43.84c24.18,0,43.84,19.67,43.84,43.84
			C205.34,185.67,185.67,205.34,161.5,205.34z M206.75,126.72c-5.72,0-10.37-4.65-10.37-10.37s4.65-10.37,10.37-10.37
			c5.72,0,10.37,4.65,10.37,10.37S212.47,126.72,206.75,126.72z M161.5,136.19c-13.95,0-25.32,11.36-25.32,25.31
			c0,13.96,11.36,25.32,25.32,25.32c13.96,0,25.32-11.36,25.32-25.32C186.81,147.54,175.46,136.19,161.5,136.19z M34.21,34.21
			v254.57h254.57V34.21H34.21z M246.61,203.67c0,23.68-19.26,42.94-42.94,42.94h-84.34c-23.68,0-42.94-19.26-42.94-42.94v-84.34
			c0-23.68,19.26-42.94,42.94-42.94h84.34c23.68,0,42.94,19.26,42.94,42.94L246.61,203.67L246.61,203.67z M203.67,94.91h-84.34
			c-13.46,0-24.42,10.95-24.42,24.42v84.34c0,13.46,10.95,24.42,24.42,24.42h84.34c13.46,0,24.42-10.95,24.42-24.42v-84.34
			C228.09,105.87,217.13,94.91,203.67,94.91z M161.5,205.34c-24.17,0-43.84-19.67-43.84-43.84c0-24.17,19.67-43.84,43.84-43.84
			c24.18,0,43.84,19.67,43.84,43.84C205.34,185.67,185.67,205.34,161.5,205.34z M206.75,126.72c-5.72,0-10.37-4.65-10.37-10.37
			s4.65-10.37,10.37-10.37c5.72,0,10.37,4.65,10.37,10.37S212.47,126.72,206.75,126.72z M161.5,136.19
			c-13.95,0-25.32,11.36-25.32,25.31c0,13.96,11.36,25.32,25.32,25.32c13.96,0,25.32-11.36,25.32-25.32
			C186.81,147.54,175.46,136.19,161.5,136.19z M161.5,136.19c-13.95,0-25.32,11.36-25.32,25.31c0,13.96,11.36,25.32,25.32,25.32
			c13.96,0,25.32-11.36,25.32-25.32C186.81,147.54,175.46,136.19,161.5,136.19z M161.5,136.19c-13.95,0-25.32,11.36-25.32,25.31
			c0,13.96,11.36,25.32,25.32,25.32c13.96,0,25.32-11.36,25.32-25.32C186.81,147.54,175.46,136.19,161.5,136.19z M203.67,94.91
			h-84.34c-13.46,0-24.42,10.95-24.42,24.42v84.34c0,13.46,10.95,24.42,24.42,24.42h84.34c13.46,0,24.42-10.95,24.42-24.42v-84.34
			C228.09,105.87,217.13,94.91,203.67,94.91z M161.5,205.34c-24.17,0-43.84-19.67-43.84-43.84c0-24.17,19.67-43.84,43.84-43.84
			c24.18,0,43.84,19.67,43.84,43.84C205.34,185.67,185.67,205.34,161.5,205.34z M206.75,126.72c-5.72,0-10.37-4.65-10.37-10.37
			s4.65-10.37,10.37-10.37c5.72,0,10.37,4.65,10.37,10.37S212.47,126.72,206.75,126.72z M161.5,136.19
			c-13.95,0-25.32,11.36-25.32,25.31c0,13.96,11.36,25.32,25.32,25.32c13.96,0,25.32-11.36,25.32-25.32
			C186.81,147.54,175.46,136.19,161.5,136.19z M161.5,136.19c-13.95,0-25.32,11.36-25.32,25.31c0,13.96,11.36,25.32,25.32,25.32
			c13.96,0,25.32-11.36,25.32-25.32C186.81,147.54,175.46,136.19,161.5,136.19z M161.5,136.19c-13.95,0-25.32,11.36-25.32,25.31
			c0,13.96,11.36,25.32,25.32,25.32c13.96,0,25.32-11.36,25.32-25.32C186.81,147.54,175.46,136.19,161.5,136.19z M203.67,94.91
			h-84.34c-13.46,0-24.42,10.95-24.42,24.42v84.34c0,13.46,10.95,24.42,24.42,24.42h84.34c13.46,0,24.42-10.95,24.42-24.42v-84.34
			C228.09,105.87,217.13,94.91,203.67,94.91z M161.5,205.34c-24.17,0-43.84-19.67-43.84-43.84c0-24.17,19.67-43.84,43.84-43.84
			c24.18,0,43.84,19.67,43.84,43.84C205.34,185.67,185.67,205.34,161.5,205.34z M206.75,126.72c-5.72,0-10.37-4.65-10.37-10.37
			s4.65-10.37,10.37-10.37c5.72,0,10.37,4.65,10.37,10.37S212.47,126.72,206.75,126.72z M161.5,136.19
			c-13.95,0-25.32,11.36-25.32,25.31c0,13.96,11.36,25.32,25.32,25.32c13.96,0,25.32-11.36,25.32-25.32
			C186.81,147.54,175.46,136.19,161.5,136.19z"/>
	</g>
</g>
</svg>
