<?xml version="1.0" encoding="utf-8"?>
<!-- Generator: Adobe Illustrator 24.1.0, SVG Export Plug-In . SVG Version: 6.00 Build 0)  -->
<svg version="1.1" xmlns="http://www.w3.org/2000/svg" xmlns:xlink="http://www.w3.org/1999/xlink" x="0px" y="0px"
	 viewBox="0 0 355.5 373.5" style="enable-background:new 0 0 355.5 373.5;" xml:space="preserve">
<style type="text/css">
	.st0{fill:#FFDB43;}
	.st1{fill:#C17816;}
	.st2{fill:#9B9B9B;}
	.st3{fill:none;}
	.st4{fill:#FFFFFF;}
	.st5{fill:#7C7B7B;}
	.st6{fill:#ED8507;}
</style>
<g id="Capa_5">
</g>
<g id="Capa_4">
</g>
<g id="Paleta_de_color">
</g>
<g id="Tipografia">
</g>
<g id="Capa_3">
	<g>
		<g>
			<g>
				<path d="M73.59,310.37c-4.34,0-11.05,0.12-11.54,0.12c-0.84,0-1.12-0.17-1.12-0.52c0-0.29,0.28-0.52,0.63-0.52
					c0.35,0,0.98,0.12,1.47,0.12c3.08,0,4.55-2.09,4.55-3.72v-30.66c0-1.45-1.82-3.08-4.48-3.08c-0.49,0-1.12,0.12-1.47,0.12
					c-0.35,0-0.63-0.23-0.63-0.52c0-0.35,0.28-0.52,1.12-0.52c0.49,0,4.62,0.12,8.88,0.12c4.97,0,8.54-0.12,9.1-0.12
					c0.77,0,1.05,0.17,1.05,0.52c0,0.29-0.28,0.52-0.63,0.52c-0.35,0-0.98-0.12-1.47-0.12c-3.08,0-4.62,2.09-4.62,3.72v33.86
					C74.43,310.08,74.15,310.37,73.59,310.37z M78.13,308.69c0.63,0.06,1.33,0.06,2.17,0.06h5.25c2.24,0,4.48-0.17,6.44-1.16
					c3.5-1.8,4.76-5.4,4.76-7.26c0-0.41,0.35-0.64,0.77-0.64s0.77,0.29,0.77,0.64c0,1.28-0.49,4.7-0.49,8.3v1.28
					c0,0.35-0.35,0.64-0.77,0.64c-0.49,0-1.4-0.17-3.29-0.17H78.06c-0.49,0-0.84-0.29-0.84-0.7v-0.35
					C77.23,308.86,77.58,308.63,78.13,308.69z"/>
				<path d="M121.16,281.28l-12.1,24.86c-0.63,1.39-1.05,3.43,4.62,3.43c0.49,0,1.12-0.12,1.47-0.12c0.35,0,0.63,0.23,0.63,0.52
					c0,0.35-0.28,0.52-1.05,0.52c-0.56,0-3.5-0.12-6.86-0.12c-3.43,0-6.16,0.12-6.65,0.12c-0.84,0-1.12-0.17-1.12-0.52
					c0-0.29,0.28-0.52,0.63-0.52c0.35,0,0.98,0.12,1.47,0.12c2.52,0,4.27-2.03,5.04-3.72l12.59-25.9c0.28-0.58,0.84-0.58,1.12,0
					l0.21,0.41C121.3,280.64,121.3,280.99,121.16,281.28z M125.71,270.65l17.56,35.6c0.77,1.45,1.75,3.31,4.76,3.31
					c0.49,0,1.12-0.12,1.47-0.12c0.35,0,0.63,0.23,0.63,0.52c0,0.35-0.28,0.52-1.05,0.52c-0.56,0-3.43-0.12-9.1-0.12
					c-4.27,0-9.09,0.12-9.58,0.12c-0.84,0-1.12-0.17-1.12-0.52c0-0.29,0.28-0.52,0.63-0.52c0.35,0,0.98,0.12,1.47,0.12
					c5.18,0,4.9-1.86,4.13-3.72l-4.76-9.64h-13.01c-0.63,0-0.84-0.35-0.63-0.81l0.14-0.29c0.21-0.41,0.56-0.52,0.98-0.52h11.75
					l-7.7-15.62c-1.89-3.31-2.73-4.7-2.31-4.7C122.91,274.25,124.87,270.65,125.71,270.65z"/>
				<path d="M160.76,282.56v23.29c0,1.63,1.68,3.72,4.76,3.72c0.49,0,1.12-0.12,1.47-0.12c0.35,0,0.63,0.23,0.63,0.52
					c0,0.35-0.28,0.52-1.12,0.52c-0.49,0-3.22-0.12-6.65-0.12c-3.36,0-6.3,0.12-6.86,0.12c-0.77,0-1.05-0.17-1.05-0.52
					c0-0.29,0.28-0.52,0.63-0.52c0.35,0,0.98,0.12,1.47,0.12c3.08,0,4.76-2.09,4.76-3.72v-24.57c0-0.64,0.63-0.81,1.05-0.29
					l0.56,0.7C160.62,281.97,160.76,282.21,160.76,282.56z M152.78,272.22c-0.35,0-0.63-0.23-0.63-0.52c0-0.35,0.28-0.52,1.12-0.52
					c0.21,0,4.55,0.12,9.03,0.12c0.63,0,1.19,0,1.75,0.58c5.67,5.87,24.91,25.38,31.62,32.35v4.01c0,0.52,0.21,1.04,0.21,1.39
					s-0.21,0.75-0.91,0.75h-1.12c-1.05,0-3.57-2.67-5.11-4.3l-27.98-28.92c-3.5-3.72-5.6-5.05-6.37-5.05
					C153.76,272.1,153.13,272.22,152.78,272.22z M193.71,299.11v-23.29c0-1.63-1.68-3.72-4.76-3.72c-0.49,0-1.12,0.12-1.47,0.12
					s-0.63-0.23-0.63-0.52c0-0.35,0.28-0.52,1.12-0.52c0.49,0,3.22,0.12,6.65,0.12c3.36,0,6.3-0.12,6.86-0.12
					c0.77,0,1.05,0.17,1.05,0.52c0,0.29-0.28,0.52-0.63,0.52s-0.98-0.12-1.47-0.12c-3.08,0-4.76,2.09-4.76,3.72v24.57
					c0,0.64-0.63,0.81-1.05,0.29l-0.56-0.7C193.85,299.69,193.71,299.46,193.71,299.11z"/>
				<path d="M217,310.37c-4.34-0.06-11.05,0.12-11.54,0.12c-0.84,0-1.12-0.17-1.12-0.52c0-0.29,0.28-0.52,0.63-0.52
					c0.35,0,0.98,0.12,1.47,0.12c3.08,0,4.55-2.09,4.55-3.72v-30.03c0-1.63-1.47-3.72-4.55-3.72c-0.49,0-1.12,0.12-1.47,0.12
					c-0.35,0-0.63-0.23-0.63-0.52c0-0.35,0.28-0.52,1.12-0.52c0.49,0,7.21,0.17,11.54,0.12c0.56,0,0.84,0.29,0.84,0.7v37.69
					C217.84,310.08,217.56,310.37,217,310.37z M221.48,308.75h2.59c9.79,0,15.95-6.45,15.95-17.19c0-11.56-6.16-18.64-15.95-18.64
					h-2.59c-0.49,0-0.84-0.29-0.84-0.7v-0.29c0-0.41,0.28-0.7,0.84-0.7c1.19-0.06,2.38-0.06,3.57-0.06
					c12.66,0,22.81,7.08,22.81,19.8c0,12.31-10.14,19.51-22.81,19.51c-1.19,0-2.38,0-3.57-0.06c-0.56,0-0.84-0.29-0.84-0.7v-0.29
					C220.64,309.04,220.99,308.75,221.48,308.75z"/>
				<path d="M266.54,281.28l-12.1,24.86c-0.63,1.39-1.05,3.43,4.62,3.43c0.49,0,1.12-0.12,1.47-0.12s0.63,0.23,0.63,0.52
					c0,0.35-0.28,0.52-1.05,0.52c-0.56,0-3.5-0.12-6.86-0.12c-3.43,0-6.16,0.12-6.65,0.12c-0.84,0-1.12-0.17-1.12-0.52
					c0-0.29,0.28-0.52,0.63-0.52s0.98,0.12,1.47,0.12c2.52,0,4.27-2.03,5.04-3.72l12.59-25.9c0.28-0.58,0.84-0.58,1.12,0l0.21,0.41
					C266.68,280.64,266.68,280.99,266.54,281.28z M271.08,270.65l17.56,35.6c0.77,1.45,1.75,3.31,4.76,3.31
					c0.49,0,1.12-0.12,1.47-0.12c0.35,0,0.63,0.23,0.63,0.52c0,0.35-0.28,0.52-1.05,0.52c-0.56,0-3.43-0.12-9.1-0.12
					c-4.27,0-9.09,0.12-9.58,0.12c-0.84,0-1.12-0.17-1.12-0.52c0-0.29,0.28-0.52,0.63-0.52s0.98,0.12,1.47,0.12
					c5.18,0,4.9-1.86,4.13-3.72l-4.76-9.64h-13.01c-0.63,0-0.84-0.35-0.63-0.81l0.14-0.29c0.21-0.41,0.56-0.52,0.98-0.52h11.75
					l-7.7-15.62c-1.89-3.31-2.73-4.7-2.31-4.7C268.29,274.25,270.24,270.65,271.08,270.65z"/>
			</g>
			<g>
				<path d="M183.18,54.58l-0.96-0.96c-0.01-0.01-0.02-0.01-0.02-0.02c-0.56-0.38-1.24-0.6-1.99-0.6c-1.88,0-3.4,1.4-3.58,3.22
					c0,0.02,0,0.02,0,0.03v0.67c0,0.02,0,0.02,0,0.03l-0.03,155c0,0.54,0.8,0.58,0.85,0.03c0.04-0.48,0.08-0.96,0.12-1.44
					c0.11-1.35,0.22-2.71,0.33-4.06c0.17-2.1,0.34-4.21,0.51-6.31c0.22-2.73,0.44-5.46,0.66-8.19c0.26-3.23,0.52-6.46,0.78-9.69
					c0.29-3.6,0.58-7.21,0.87-10.81c0.31-3.86,0.62-7.71,0.93-11.57c0.32-3.98,0.64-7.96,0.96-11.94c0.32-3.98,0.64-7.96,0.96-11.94
					c0.31-3.86,0.62-7.71,0.93-11.57c0.29-3.61,0.58-7.21,0.87-10.82c0.26-3.23,0.52-6.46,0.78-9.7c0.22-2.73,0.44-5.46,0.66-8.2
					c0.17-2.11,0.34-4.22,0.51-6.32c0.14-1.71,0.26-3.43,0.37-5.14c0.07-1.1,0.15-2.28,0.9-3.14c0.7-0.8,1.68-1.28,2.75-1.28
					c0.61,0,1.2,0.15,1.71,0.43c0.02,0,0.02,0.02,0.03,0.02c0.34,0.18,0.66,0.43,0.91,0.72l68.18,52.98
					c0.14,0.11,0.3-0.08,0.18-0.21L183.18,54.58z"/>
				<path d="M111.14,138.57c-0.93-1.59-1.51-3.33-1.38-5.2c0.1-1.47,0.24-2.87,1.26-4.03c1.28-1.44,2.48-2.96,3.69-4.46
					c1.9-2.36,3.81-4.73,5.71-7.09c2.76-3.43,5.52-6.85,8.28-10.28c3.24-4.02,6.47-8.04,9.71-12.05c3.34-4.14,6.67-8.28,10.01-12.42
					c3.06-3.8,6.11-7.59,9.17-11.39c2.4-2.98,4.8-5.96,7.2-8.94c1.37-1.69,2.73-3.39,4.1-5.08c0.18-0.22,0.35-0.44,0.53-0.66
					c0.49-0.61-0.37-1.39-0.93-0.83l-71.7,71.55c-0.67,0.5-1.28,1.11-1.78,1.78c-1.2,1.59-1.92,3.57-1.92,5.72
					c0,2.18,0.73,4.18,1.95,5.76c0.47,0.61,1.02,1.16,1.63,1.63l72.87,72.79c0.67,0.54,1.05-0.48,0.28-1.51
					c-0.31-0.42-0.26-0.36-0.57-0.76c-0.89-1.14-0.09-0.11-0.09-0.11c-1.36-1.74-1.08-1.37-2.44-3.11c-1.73-2.22-3.47-4.43-5.2-6.65
					c-2.01-2.57-4.02-5.14-6.03-7.71c-2.19-2.8-4.37-5.6-6.56-8.39c-2.27-2.9-4.54-5.8-6.8-8.7c-2.25-2.88-4.5-5.76-6.75-8.64
					c-2.14-2.73-4.27-5.46-6.41-8.2c-1.92-2.46-3.84-4.92-5.77-7.38c-1.61-2.06-3.22-4.12-4.84-6.19c-1.2-1.54-2.41-3.08-3.61-4.62
					c-1.15-1.47-2.42-2.89-3.41-4.48C111.28,138.81,111.21,138.69,111.14,138.57z"/>
			</g>
		</g>
		<path d="M177.62,223.63c0,0-0.01,0.45,0.14,0.43s0.13-0.38,0.13-0.38l-0.07,0.52h-0.07L177.62,223.63z"/>
	</g>
</g>
</svg>
