<?xml version="1.0" encoding="utf-8"?>
<!-- Generator: Adobe Illustrator 24.1.0, SVG Export Plug-In . SVG Version: 6.00 Build 0)  -->
<svg version="1.1" id="Capa_1" xmlns="http://www.w3.org/2000/svg" xmlns:xlink="http://www.w3.org/1999/xlink" x="0px" y="0px"
	 viewBox="0 0 1275 1650" style="enable-background:new 0 0 1275 1650;" xml:space="preserve">
<style type="text/css">
	.st0{fill:none;}
	.st1{fill:#FFFFFF;}
</style>
<g id="Capa_5">
	<rect y="-2.2" width="1275" height="1803.2"/>
</g>
<g id="Capa_4">
</g>
<g id="Paleta_de_color">
</g>
<g id="Tipografia">
	<g>
		<rect x="385.4" y="1056.9" class="st0" width="770.1" height="550.5"/>
		<path class="st1" d="M416.7,1177c-9.3,0-23.7,0.3-24.7,0.3c-1.8,0-2.4-0.4-2.4-1.1c0-0.6,0.6-1.1,1.3-1.1c0.7,0,2.1,0.3,3.1,0.3
			c6.6,0,9.7-4.5,9.7-8v-65.7c0-3.1-3.9-6.6-9.6-6.6c-1,0-2.4,0.3-3.1,0.3s-1.3-0.5-1.3-1.1c0-0.7,0.6-1.1,2.4-1.1
			c1,0,9.9,0.3,19,0.3c10.6,0,18.3-0.3,19.5-0.3c1.6,0,2.2,0.4,2.2,1.1c0,0.6-0.6,1.1-1.3,1.1s-2.1-0.3-3.1-0.3
			c-6.6,0-9.9,4.5-9.9,8v72.5C418.5,1176.4,417.9,1177,416.7,1177z M426.4,1173.4c1.3,0.1,2.8,0.1,4.6,0.1h11.2
			c4.8,0,9.6-0.4,13.8-2.5c7.5-3.9,10.2-11.6,10.2-15.5c0-0.9,0.7-1.4,1.6-1.4s1.6,0.6,1.6,1.4c0,2.7-1,10.1-1,17.8v2.7
			c0,0.7-0.7,1.4-1.6,1.4c-1,0-3-0.4-7-0.4h-33.6c-1,0-1.8-0.6-1.8-1.5v-0.7C424.5,1173.8,425.2,1173.3,426.4,1173.4z"/>
		<path class="st1" d="M518.6,1114.7l-25.9,53.2c-1.3,3-2.2,7.3,9.9,7.3c1,0,2.4-0.3,3.1-0.3s1.3,0.5,1.3,1.1c0,0.7-0.6,1.1-2.2,1.1
			c-1.2,0-7.5-0.3-14.7-0.3c-7.3,0-13.2,0.3-14.2,0.3c-1.8,0-2.4-0.4-2.4-1.1c0-0.6,0.6-1.1,1.3-1.1c0.7,0,2.1,0.3,3.1,0.3
			c5.4,0,9.1-4.3,10.8-8l27-55.5c0.6-1.2,1.8-1.2,2.4,0l0.4,0.9C518.9,1113.3,518.9,1114.1,518.6,1114.7z M528.3,1091.9l37.6,76.2
			c1.6,3.1,3.7,7.1,10.2,7.1c1,0,2.4-0.3,3.1-0.3c0.7,0,1.3,0.5,1.3,1.1c0,0.7-0.6,1.1-2.2,1.1c-1.2,0-7.3-0.3-19.5-0.3
			c-9.1,0-19.5,0.3-20.5,0.3c-1.8,0-2.4-0.4-2.4-1.1c0-0.6,0.6-1.1,1.3-1.1c0.7,0,2.1,0.3,3.1,0.3c11.1,0,10.5-4,8.8-8l-10.2-20.6
			h-27.9c-1.3,0-1.8-0.7-1.3-1.7l0.3-0.6c0.4-0.9,1.2-1.1,2.1-1.1h25.2l-16.5-33.5c-4-7.1-5.8-10.1-4.9-10.1
			C522.4,1099.6,526.5,1091.9,528.3,1091.9z"/>
		<path class="st1" d="M603.4,1117.4v49.9c0,3.5,3.6,8,10.2,8c1,0,2.4-0.3,3.1-0.3c0.7,0,1.3,0.5,1.3,1.1c0,0.7-0.6,1.1-2.4,1.1
			c-1,0-6.9-0.3-14.2-0.3c-7.2,0-13.5,0.3-14.7,0.3c-1.6,0-2.2-0.4-2.2-1.1c0-0.6,0.6-1.1,1.3-1.1c0.7,0,2.1,0.3,3.1,0.3
			c6.6,0,10.2-4.5,10.2-8v-52.6c0-1.4,1.3-1.7,2.2-0.6l1.2,1.5C603.1,1116.2,603.4,1116.7,603.4,1117.4z M586.3,1095.3
			c-0.7,0-1.3-0.5-1.3-1.1c0-0.7,0.6-1.1,2.4-1.1c0.4,0,9.7,0.3,19.3,0.3c1.3,0,2.5,0,3.7,1.2c12.1,12.6,53.4,54.4,67.7,69.3v8.6
			c0,1.1,0.4,2.2,0.4,3c0,0.7-0.4,1.6-1.9,1.6h-2.4c-2.2,0-7.6-5.7-10.9-9.2l-59.9-61.9c-7.5-8-12-10.8-13.6-10.8
			C588.4,1095,587.1,1095.3,586.3,1095.3z M674,1152.9V1103c0-3.5-3.6-8-10.2-8c-1,0-2.4,0.3-3.1,0.3c-0.7,0-1.3-0.5-1.3-1.1
			c0-0.7,0.6-1.1,2.4-1.1c1,0,6.9,0.3,14.2,0.3c7.2,0,13.5-0.3,14.7-0.3c1.6,0,2.2,0.4,2.2,1.1c0,0.6-0.6,1.1-1.3,1.1
			c-0.7,0-2.1-0.3-3.1-0.3c-6.6,0-10.2,4.5-10.2,8v52.6c0,1.4-1.3,1.7-2.2,0.6l-1.2-1.5C674.3,1154.1,674,1153.6,674,1152.9z"/>
		<path class="st1" d="M723.9,1177c-9.3-0.1-23.7,0.3-24.7,0.3c-1.8,0-2.4-0.4-2.4-1.1c0-0.6,0.6-1.1,1.3-1.1c0.7,0,2.1,0.3,3.1,0.3
			c6.6,0,9.7-4.5,9.7-8V1103c0-3.5-3.1-8-9.7-8c-1,0-2.4,0.3-3.1,0.3c-0.7,0-1.3-0.5-1.3-1.1c0-0.7,0.6-1.1,2.4-1.1
			c1,0,15.4,0.4,24.7,0.3c1.2,0,1.8,0.6,1.8,1.5v80.7C725.7,1176.4,725.1,1177,723.9,1177z M733.5,1173.5h5.5
			c21,0,34.2-13.8,34.2-36.8c0-24.8-13.2-39.9-34.2-39.9h-5.5c-1,0-1.8-0.6-1.8-1.5v-0.6c0-0.9,0.6-1.5,1.8-1.5
			c2.5-0.1,5.1-0.1,7.6-0.1c27.1,0,48.9,15.2,48.9,42.4c0,26.4-21.7,41.8-48.9,41.8c-2.5,0-5.1,0-7.6-0.1c-1.2,0-1.8-0.6-1.8-1.5
			v-0.6C731.7,1174.1,732.4,1173.5,733.5,1173.5z"/>
		<path class="st1" d="M830,1114.7l-25.9,53.2c-1.3,3-2.2,7.3,9.9,7.3c1,0,2.4-0.3,3.1-0.3s1.3,0.5,1.3,1.1c0,0.7-0.6,1.1-2.2,1.1
			c-1.2,0-7.5-0.3-14.7-0.3c-7.3,0-13.2,0.3-14.2,0.3c-1.8,0-2.4-0.4-2.4-1.1c0-0.6,0.6-1.1,1.3-1.1c0.7,0,2.1,0.3,3.1,0.3
			c5.4,0,9.1-4.3,10.8-8l27-55.5c0.6-1.2,1.8-1.2,2.4,0l0.4,0.9C830.3,1113.3,830.3,1114.1,830,1114.7z M839.7,1091.9l37.6,76.2
			c1.6,3.1,3.7,7.1,10.2,7.1c1,0,2.4-0.3,3.1-0.3c0.7,0,1.3,0.5,1.3,1.1c0,0.7-0.6,1.1-2.2,1.1c-1.2,0-7.3-0.3-19.5-0.3
			c-9.1,0-19.5,0.3-20.5,0.3c-1.8,0-2.4-0.4-2.4-1.1c0-0.6,0.6-1.1,1.3-1.1c0.7,0,2.1,0.3,3.1,0.3c11.1,0,10.5-4,8.8-8l-10.2-20.6
			h-27.9c-1.3,0-1.8-0.7-1.3-1.7l0.3-0.6c0.4-0.9,1.2-1.1,2.1-1.1h25.2l-16.5-33.5c-4-7.1-5.8-10.1-4.9-10.1
			C833.7,1099.6,837.9,1091.9,839.7,1091.9z"/>
	</g>
</g>
<g id="Capa_3">
	<g>
		<g>
			<path class="st1" d="M649.1,629.1l-2.1-2.1c0,0,0,0,0,0c-1.2-0.8-2.7-1.3-4.3-1.3c-4,0-7.3,3-7.7,6.9c0,0,0,0,0,0.1v1.4
				c0,0,0,0,0,0.1l-0.1,332c0,1.2,1.7,1.2,1.8,0.1c0.1-1,0.2-2.1,0.3-3.1c0.2-2.9,0.5-5.8,0.7-8.7c0.4-4.5,0.7-9,1.1-13.5
				c0.5-5.8,0.9-11.7,1.4-17.5c0.6-6.9,1.1-13.8,1.7-20.8c0.6-7.7,1.2-15.4,1.9-23.2c0.7-8.3,1.3-16.5,2-24.8
				c0.7-8.5,1.4-17,2.1-25.6c0.7-8.5,1.4-17,2.1-25.6c0.7-8.3,1.3-16.5,2-24.8c0.6-7.7,1.2-15.4,1.9-23.2c0.6-6.9,1.1-13.8,1.7-20.8
				c0.5-5.8,0.9-11.7,1.4-17.6c0.4-4.5,0.7-9,1.1-13.5c0.3-3.7,0.6-7.3,0.8-11c0.1-2.4,0.3-4.9,1.9-6.7c1.5-1.7,3.6-2.7,5.9-2.7
				c1.3,0,2.6,0.3,3.7,0.9c0,0,0,0,0.1,0c0.7,0.4,1.4,0.9,1.9,1.5l146,113.5c0.3,0.2,0.6-0.2,0.4-0.4L649.1,629.1z"/>
			<path class="st1" d="M494.8,809c-2-3.4-3.2-7.1-3-11.1c0.2-3.1,0.5-6.1,2.7-8.6c2.7-3.1,5.3-6.3,7.9-9.6
				c4.1-5.1,8.2-10.1,12.2-15.2c5.9-7.3,11.8-14.7,17.7-22c6.9-8.6,13.9-17.2,20.8-25.8c7.2-8.9,14.3-17.7,21.4-26.6
				c6.6-8.1,13.1-16.3,19.6-24.4c5.1-6.4,10.3-12.8,15.4-19.1c2.9-3.6,5.8-7.3,8.8-10.9c0.4-0.5,0.7-0.9,1.1-1.4c1-1.3-0.8-3-2-1.8
				L464.1,785.7c-1.4,1.1-2.7,2.4-3.8,3.8c-2.6,3.4-4.1,7.6-4.1,12.3c0,4.7,1.6,9,4.2,12.3c1,1.3,2.2,2.5,3.5,3.5l156.1,155.9
				c1.4,1.2,2.2-1,0.6-3.2c-0.7-0.9-0.6-0.8-1.2-1.6c-1.9-2.4-0.2-0.2-0.2-0.2c-2.9-3.7-2.3-2.9-5.2-6.7c-3.7-4.8-7.4-9.5-11.1-14.2
				c-4.3-5.5-8.6-11-12.9-16.5c-4.7-6-9.4-12-14.1-18c-4.9-6.2-9.7-12.4-14.6-18.6c-4.8-6.2-9.6-12.3-14.5-18.5
				c-4.6-5.8-9.1-11.7-13.7-17.6c-4.1-5.3-8.2-10.5-12.4-15.8c-3.4-4.4-6.9-8.8-10.4-13.3c-2.6-3.3-5.2-6.6-7.7-9.9
				c-2.5-3.1-5.2-6.2-7.3-9.6C495.1,809.5,495,809.3,494.8,809z"/>
		</g>
		<path d="M629.5,987.6c0,0,0,1,0.3,0.9c0.3-0.1,0.3-0.8,0.3-0.8l-0.1,1.1h-0.1L629.5,987.6z"/>
	</g>
</g>
</svg>
