<?xml version="1.0" encoding="utf-8"?>
<!-- Generator: Adobe Illustrator 24.1.0, SVG Export Plug-In . SVG Version: 6.00 Build 0)  -->
<svg version="1.1" id="Capa_1" xmlns="http://www.w3.org/2000/svg" xmlns:xlink="http://www.w3.org/1999/xlink" x="0px" y="0px"
	 viewBox="0 0 708.66 708.66" style="enable-background:new 0 0 708.66 708.66;" xml:space="preserve">
<style type="text/css">
	.st0{fill:#010202;}
	.st1{fill:#FFFFFF;}
</style>
<rect class="st0" width="708.66" height="708.66"/>
<g>
	<path class="st1" d="M418.35,330.56c-9.89-0.78-15.67,2.33-22.47,6.46c-6.8,4.13-17.21,14.42-23.13,19.48
		c-5.91,5.06-15.05,13.09-20.43,15.27c-5.38,2.17-8.36,3.33-12.27,2.14c-3.91-1.19-4.52-3.16-4.52-3.16
		c2.22,7.18,11.38,12.18,18.16,13.87c13.2,3.29,25.83-3.32,35.2-12.28c0,0,23-20.27,26.41-22.45c3.42-2.18,15.43-10.9,20.08-5.81
		C435.39,344.08,428.24,331.34,418.35,330.56z"/>
	<path class="st1" d="M418.35,374.31c-9.89-0.78-15.67,2.33-22.47,6.46c-6.8,4.13-17.21,14.42-23.13,19.48
		c-5.91,5.06-15.05,13.09-20.43,15.27c-5.38,2.17-8.36,3.33-12.27,2.14c-3.91-1.19-4.52-3.16-4.52-3.16
		c2.22,7.18,11.38,12.18,18.16,13.87c13.2,3.29,25.83-3.32,35.2-12.28c0,0,23-20.27,26.41-22.45c3.42-2.18,15.43-10.9,20.08-5.81
		C435.39,387.83,428.24,375.09,418.35,374.31z"/>
	<path class="st1" d="M418.35,418.05c-9.89-0.78-15.67,2.33-22.47,6.46c-6.8,4.13-17.21,14.42-23.13,19.48
		c-5.91,5.06-15.05,13.09-20.43,15.27c-5.38,2.17-8.36,3.33-12.27,2.14c-3.91-1.19-4.52-3.16-4.52-3.16
		c2.22,7.18,11.38,12.18,18.16,13.87c13.2,3.29,25.83-3.32,35.2-12.29c0,0,23-20.27,26.41-22.45c3.42-2.18,15.43-10.9,20.08-5.81
		C435.39,431.57,428.24,418.83,418.35,418.05z"/>
	<path class="st1" d="M321.4,418.18v-20.95V279.28c11.94,10.21,25.83,22.46,25.83,22.46c14.91,14.25,35,24.78,56,19.54
		c10.78-2.69,25.35-10.64,28.88-22.06c0,0-0.97,3.13-7.18,5.02c-6.22,1.89-10.96,0.05-19.52-3.41c-8.56-3.46-23.09-16.24-32.5-24.29
		c-9.41-8.05-25.97-24.42-36.79-30.99c-10.82-6.57-20.01-11.52-35.75-10.28c-15.73,1.24-27.1,21.51-27.1,21.51
		c4.37-4.78,12.83-1.88,20.14,2v138.46v20.95c0,0-2.31,6.88-5.04,8.4c0,0,16.97,24.02,19.03,47.01
		c2.06-22.99,19.03-47.01,19.03-47.01C323.71,425.06,321.4,418.18,321.4,418.18z"/>
</g>
</svg>
