<?xml version="1.0" encoding="utf-8"?>
<!-- Generator: Adobe Illustrator 24.1.0, SVG Export Plug-In . SVG Version: 6.00 Build 0)  -->
<svg version="1.1" id="Capa_1" xmlns="http://www.w3.org/2000/svg" xmlns:xlink="http://www.w3.org/1999/xlink" x="0px" y="0px"
	 viewBox="0 0 1275 1650" style="enable-background:new 0 0 1275 1650;" xml:space="preserve">
<style type="text/css">
	.st0{display:none;}
	.st1{fill:#FFFFFF;}
	.st2{fill:none;}
</style>
<g id="Capa_1_1_" class="st0">
	
		<image style="display:inline;overflow:visible;enable-background:new    ;" width="4597" height="5015" xlink:href="8EB54214.jpeg"  transform="matrix(4.053769e-02 0 0 4.053769e-02 544.3687 723.4001)">
	</image>
</g>
<g id="vector">
	<rect width="1275" height="1650"/>
	<g>
		<path class="st1" d="M765.2,855.9c0.7-2.4,1-4.8,1-7.4c0-9.8-5-18.3-12.5-23.3c3.1,8.7,3.6,22.6,1.5,39.4c-0.2,2.3-0.5,4.6-0.9,7
			c-2.5,15.4-6.9,33-13.2,51.2c-14.8,42.4-35.5,75.6-51.6,84.8c5.5-13.6,10.3-29.4,13.7-46.4c7-34.1,7.2-65.5,1.8-86.1
			c-1.3-5.1-3-9.6-5-13.2c-1.9-3.5-4.1-6.1-6.5-8c-1.5,4.7-3.4,9.6-5.5,14.4c-0.5,1.2-1,2.4-1.5,3.6c-10.4,23.1-23.9,41.7-36.5,52
			c0.4-1.6,0.8-3.2,1.1-4.9c3.1-15.3,4.3-29.9,3.7-42.6c0-0.1,0-0.1,0-0.1c-1-22.9-7.7-39.4-18.7-41.6c-0.5-0.1-1-0.2-1.5-0.2
			c-16.8-1.4-36.8,30.1-45.3,71.9c-1.3,6.4-2.3,12.7-2.9,18.8c-0.1,0.5-0.1,1.1-0.2,1.6c-2,21.4-6.3,40.3-12,55.1v-1.2
			c0-27-10.8-48.8-24.1-48.8c-13.3,0-24,21.8-24,48.8c0,10.5,1.6,20.2,4.4,28.2c-17.6-15.1-30.2-59.3-30.2-111.4
			c0-32.4,4.9-61.8,12.8-82.9c-29.7-8.2-51.5-35.4-51.5-67.6c0-14.7,4.6-28.4,12.3-39.6c7.1,10.5,19.2,17.5,32.8,17.5
			c14.3,0,26.9-7.6,33.8-19.1c1.8-2.8,3.1-5.8,4.1-9.1l7.5-16.7l22.9-51l8-17.8c1.2-2,2.4-3.9,3.7-5.8
			c15.8-22.7,41.8-37.7,71.4-38.3c0.6-0.1,1.3-0.1,1.9-0.1c3.2,0,6.3,0.2,9.4,0.5c4-0.9,7.5-2.9,10.3-5.5l5.7-9.8l17.2-29.8
			l31.1-53.8c9.6,0.2,18.3,4.3,24.5,10.8c6.2,6.3,10,15,10,24.5c0,5.3-1.2,10.3-3.3,14.8c-0.5,1.3-1.2,2.4-1.9,3.6
			c-0.3,0.8-0.4,1.7-0.4,2.6c0,2.9,1.3,5.5,3.3,7.2c0.9,0.8,1.9,1.4,3.1,1.8c7.2,4.8,12.5,12,14.7,20.6c0.8,2.9,1.2,5.9,1.2,9
			c0,3.5-0.5,6.9-1.5,10.2l-1.3,3.6l-29.1,83.4c-1.9,3.8-3.3,7.8-4.2,12c0,0.1,0,0.1,0,0.1c-0.7,3.2-1,6.6-1,10
			c0,11.6,4,22.3,10.6,30.7c3.5,2.8,6.8,5.9,9.8,9.4c14.2,16.2,23.1,39.4,23.1,65.1C791.2,815,781.1,839.6,765.2,855.9z"/>
		<g>
			<rect x="324.2" y="1097.6" class="st2" width="626.6" height="84.1"/>
			<path class="st1" d="M344.1,1064.3c3.7,0,7.2,1.2,9.5,3.7c1.3-0.2,1.5-1.1,1.5-2.7h1.6v16.8h-1.6v-5.5c0-7.4-4.6-9.7-8.7-9.7
				c-5.7,0-11,5.6-5.8,16.9c4.8,10.8,10.2,23.6,15.8,36c6.6,14.2-1.9,24.6-11.6,24.6c-3.6,0-7.8-1.2-10.8-3.8
				c-1.9,0.1-1.9,1.4-1.9,3h-1.6v-19h1.6v7.7c0,6.6,5.8,10,10.1,10c7.4,0,10.8-8.3,3.7-22.9c-3.5-7.2-8.3-18.7-13.6-30.1
				C324.9,1073,335.6,1064.3,344.1,1064.3z"/>
			<path class="st1" d="M363.1,1141.8h4.6v-74.7h-4.6v-1.8h29.9v15h-1.8c0-10.4-1.2-13.2-6.9-13.2h-7.2v35.5h4.7
				c5.7,0,5.9-1.5,5.9-9.6h1.8v21.1h-1.8c0-8.2-0.2-9.6-5.9-9.6h-4.7v37.4h8.1c5.7,0,7.2-2.6,7.2-15.6h1.6v17.3h-31
				C363.1,1143.6,363.1,1141.8,363.1,1141.8z"/>
			<path class="st1" d="M419,1064.6c3.3,0,6,1,7.9,2.9c0.9-0.3,1-1.1,1-2.3h1.6v17.3h-1.6v-6.1c0-6.3-2.9-10.1-8.8-10.1
				c-5.6,0-8.5,4.3-8.5,11.1v53.4c0,7.7,3,11.5,7.6,11.5c3.6,0,5.5-2.3,5.5-6v-21.6h-3.3v-1.8h15.4v1.8h-3.3v28.8h-1.6
				c0-2.8-0.5-3.7-1.4-3.7c-2,0-4.9,4.3-11.5,4.3c-7.6,0-16.9-7.5-16.9-20.7v-39.7C401.2,1074.4,408.4,1064.6,419,1064.6z"/>
			<path class="st1" d="M436.8,1067.1v-1.8h18.7v1.8h-4.7v62.8c0,10.1,2.7,12.6,7.7,12.6c4.2,0,11.5-1.9,11.5-16.5v-58.9h-4.7v-1.8
				h11v1.8h-4.7v58.9c0,10.9-3.6,18.3-14.1,18.3c-7.3,0-16.1-3.7-16.1-17v-60.2L436.8,1067.1L436.8,1067.1z"/>
			<path class="st1" d="M478.9,1141.8h4.7v-74.7h-4.7v-1.8h22.7c10.7,0,14.9,11.1,14.9,17.8v4.9c0,6.9-4.7,17.3-14.8,17.3
				c1,0,8,0.9,9.8,9.4l6.4,27h4.9v1.8h-14.2l-6.6-29.9c-1.4-6.4-2.3-8.3-5.5-8.3H493v36.4h4.7v1.8h-18.7
				C478.9,1143.6,478.9,1141.8,478.9,1141.8z M507.1,1080.1c0-4.1-0.5-13-6.6-13H493v36.5h7.6c5,0,6.6-6.1,6.6-12.7V1080.1z"/>
			<path class="st1" d="M525.5,1084.3c0-10.8,7.9-19.7,17.6-19.7c9.7,0,17.8,8.8,17.8,19.7v39.5c0,11.3-8,20.4-17.8,20.4
				c-9.8,0-17.6-8.9-17.6-20.4V1084.3z M535.1,1131.5c0,8,2.9,11,8,11c5.1,0,8.2-3,8.2-11v-54.2c0-7.3-3.3-10.9-8.1-10.9
				s-8.1,3.6-8.1,10.9C535.1,1077.3,535.1,1131.5,535.1,1131.5z"/>
			<path class="st1" d="M582.3,1064.3c3.7,0,7.2,1.2,9.5,3.7c1.3-0.2,1.5-1.1,1.5-2.7h1.6v16.8h-1.6v-5.5c0-7.4-4.6-9.7-8.7-9.7
				c-5.7,0-11,5.6-5.8,16.9c4.8,10.8,10.2,23.6,15.8,36c6.6,14.2-1.9,24.6-11.6,24.6c-3.6,0-7.8-1.2-10.8-3.8
				c-1.9,0.1-1.9,1.4-1.9,3h-1.6v-19h1.6v7.7c0,6.6,5.8,10,10.1,10c7.4,0,10.8-8.3,3.7-22.9c-3.5-7.2-8.3-18.7-13.6-30.1
				C563,1073,573.7,1064.3,582.3,1064.3z"/>
			<path class="st1" d="M643,1064.6c3.3,0,6,1,7.9,2.9c0.9-0.3,1-1.1,1-2.3h1.6v17.3H652v-6.1c0-6.3-2.9-10.1-8.8-10.1
				c-5.6,0-8.5,4.3-8.5,11.1v53.4c0,7.7,3,11.5,7.6,11.5c3.6,0,5.5-2.3,5.5-6v-21.6h-3.3v-1.8h15.4v1.8h-3.3v28.8h-1.6
				c0-2.8-0.5-3.7-1.4-3.7c-2,0-4.9,4.3-11.5,4.3c-7.6,0-16.9-7.5-16.9-20.7v-39.7C625.3,1074.4,632.5,1064.6,643,1064.6z"/>
			<path class="st1" d="M665.1,1084.3c0-10.8,7.9-19.7,17.6-19.7c9.7,0,17.8,8.8,17.8,19.7v39.5c0,11.3-8,20.4-17.8,20.4
				c-9.8,0-17.6-8.9-17.6-20.4V1084.3z M674.7,1131.5c0,8,2.9,11,8,11c5.1,0,8.2-3,8.2-11v-54.2c0-7.3-3.3-10.9-8.1-10.9
				c-4.8,0-8.1,3.6-8.1,10.9L674.7,1131.5L674.7,1131.5z"/>
			<path class="st1" d="M710.9,1141.8v-74.7h-4.7v-1.8h14.4l19.2,53.7h0.2v-52h-4.7v-1.8h11.1v1.8h-4.7v76.5h-2.2l-26.7-72.9h-0.2
				v71.1h4.7v1.8h-11.1v-1.8L710.9,1141.8L710.9,1141.8z"/>
			<path class="st1" d="M763,1067.1c-5.5,0-7.6,0.7-7.6,14.3h-1.8v-16.1h30.6l-23.2,76.5h14.4c6.1,0,8.5-0.5,8.5-17.8h1.6v19.6
				h-35.3l23-76.5L763,1067.1L763,1067.1z"/>
			<path class="st1" d="M794.3,1141.8l14.1-76.5l0.4,0.5l0.1-0.5h1.6l17.5,76.5h5v1.8h-19.2v-1.8h4.4l-4.9-22.1h-13.1l-4.1,22.1h4.4
				v1.8h-10.8v-1.8H794.3z M812.9,1117.9l-6.8-30.5l-5.6,30.5H812.9z M805.4,1060.9c2.5-4.6,3.3-7.8,4-11.9h5.5
				c-2,4.9-5.2,8.8-8.9,11.9H805.4z"/>
			<path class="st1" d="M832.2,1141.8h4.7v-74.7h-4.7v-1.8h18.7v1.8h-4.7v74.7h7.8c6,0,7.1-2.4,7.1-15.6h1.6v17.3h-30.6V1141.8z"/>
			<path class="st1" d="M866,1141.8h4.6v-74.7H866v-1.8h29.9v15h-1.8c0-10.4-1.2-13.2-6.9-13.2h-7.2v35.5h4.7c5.7,0,5.9-1.5,5.9-9.6
				h1.8v21.1h-1.8c0-8.2-0.2-9.6-5.9-9.6h-4.7v37.4h8.1c5.7,0,7.2-2.6,7.2-15.6h1.6v17.3h-31L866,1141.8L866,1141.8z"/>
			<path class="st1" d="M917.2,1067.1c-5.5,0-7.6,0.7-7.6,14.3h-1.8v-16.1h30.6l-23.2,76.5h14.4c6.1,0,8.5-0.5,8.5-17.8h1.6v19.6
				h-35.3l23-76.5L917.2,1067.1L917.2,1067.1z"/>
		</g>
	</g>
</g>
</svg>
